#N canvas 458 25 686 379 12;
#X obj 75 47 noise~;
#X obj 77 93 *~;
#X obj 77 131 dac~;
#X floatatom 142 48 5 0 1 0 - - -;
#X obj 167 136 snapshot~;
#X floatatom 168 176 5 0 0 0 - - -;
#X obj 255 106 bng 15 250 50 0 empty empty empty 17 7 0 10 -262144
-1 -1;
#X connect 0 0 1 0;
#X connect 0 0 4 0;
#X connect 1 0 2 0;
#X connect 3 0 1 1;
#X connect 4 0 5 0;
#X connect 6 0 4 0;
