#N canvas 2003 -72 519 568 12;
#X obj 204 284 osc~;
#X floatatom 184 186 5 110 440 0 - - -;
#X obj 203 354 *~;
#X floatatom 249 406 5 0 1 1 Volume - -;
#X obj 197 410 dac~;
#X obj 180 146 key;
#X msg 178 255 440;
#X msg 234 255 660;
#X obj 184 218 select 97 115;
#X connect 0 0 2 0;
#X connect 1 0 8 0;
#X connect 2 0 4 0;
#X connect 3 0 2 1;
#X connect 5 0 1 0;
#X connect 6 0 0 0;
#X connect 7 0 0 0;
#X connect 8 0 6 0;
#X connect 8 1 7 0;
