#N canvas 648 164 508 413 12;
#X obj 146 69 noise~;
#X obj 149 166 bp~;
#X floatatom 222 67 5 0 615 0 - - -;
#X floatatom 222 97 5 1437 1438 0 - - -;
#X obj 262 165 bp~;
#X floatatom 313 69 5 0 615 0 - - -;
#X floatatom 314 94 5 1437 1438 0 - - -;
#X obj 147 215 *~;
#X obj 262 218 *~;
#X floatatom 192 183 5 0 5 0 - - -;
#X floatatom 296 185 5 0 5 0 - - -;
#X obj 147 258 *~;
#X obj 262 259 *~;
#X obj 202 328 dac~;
#X obj 193 233 tgl 15 0 empty empty empty 17 7 0 10 -262144 -1 -1 0
1;
#X obj 315 230 tgl 15 0 empty empty empty 17 7 0 10 -262144 -1 -1 0
1;
#X connect 0 0 1 0;
#X connect 0 0 4 0;
#X connect 1 0 7 0;
#X connect 2 0 1 1;
#X connect 3 0 1 2;
#X connect 4 0 8 0;
#X connect 5 0 4 1;
#X connect 6 0 4 2;
#X connect 7 0 11 0;
#X connect 8 0 12 0;
#X connect 9 0 7 1;
#X connect 10 0 8 1;
#X connect 11 0 13 0;
#X connect 11 0 13 1;
#X connect 12 0 13 0;
#X connect 12 0 13 1;
#X connect 14 0 11 1;
#X connect 15 0 12 1;
